<?xml version="1.0" encoding="UTF-8"?> <svg xmlns="http://www.w3.org/2000/svg" width="160" height="75" viewBox="0 0 160 75" fill="none"> <path fill-rule="evenodd" clip-rule="evenodd" d="M106.524 8.85056C104.657 13.3798 102.703 17.0858 102.183 17.0858C101.662 17.0858 100.223 16.161 98.9856 15.0303C94.5612 10.9891 93.7374 12.828 93.4333 27.4266L93.157 40.7477L75.5948 24.5682C65.9361 15.6691 57.7632 8.38865 57.4333 8.38865C57.1024 8.38865 53.0477 11.3244 48.4216 14.9115L40.0112 21.4343L40.0002 47.7972C39.9913 69.8821 40.2219 74.2481 41.4234 74.6955C42.278 75.0144 46.0902 72.5995 50.8643 68.7128L58.8713 62.1958V50.6934V39.1909L76.8092 55.6797C86.6745 64.7479 95.0601 72.1656 95.4427 72.1627C95.8253 72.1608 99.8343 69.0791 104.352 65.3161L112.565 58.4734L112.302 29.8879C112.125 10.7146 111.69 1.1884 110.979 0.958408C110.396 0.769004 108.391 4.32129 106.524 8.85056ZM109.499 34.2384L109.443 57.1891L104.092 61.2961C101.147 63.5545 98.4887 65.4031 98.1836 65.4031C97.8785 65.4031 97.6291 54.6737 97.6291 41.5595V17.7149L99.9287 19.8167C101.194 20.9724 102.716 21.9175 103.313 21.9175C103.908 21.9175 105.415 19.5258 106.661 16.6026C107.907 13.6794 109.068 11.2877 109.24 11.2877C109.413 11.2877 109.53 21.616 109.499 34.2384ZM75.5968 28.765L93.6539 45.276V55.9348V66.5946L89.4303 62.9089C76.1841 51.3524 44.9771 22.361 45.1968 21.817C45.5277 20.9956 56.197 12.37 56.9632 12.3033C57.2802 12.2763 65.6658 19.6843 75.5968 28.765ZM55.8899 48.5143V60.1926L52.6601 63.0578C50.8832 64.6348 48.201 66.9695 46.6974 68.248L43.9645 70.5721V47.9663V25.3606L49.9272 31.0978L55.8899 36.835V48.5143Z" fill="white"></path> </svg> 