<?xml version="1.0" encoding="UTF-8"?> <svg xmlns="http://www.w3.org/2000/svg" width="160" height="75" viewBox="0 0 160 75" fill="none"> <path fill-rule="evenodd" clip-rule="evenodd" d="M52.091 2.66854C52.593 5.20262 55.903 5.4856 55.903 2.99333C55.903 1.60182 55.2609 0.977539 53.8299 0.977539C52.3989 0.977539 51.86 1.50166 52.091 2.66854ZM61.5619 1.69906C61.2719 2.15609 61.4099 3.11877 61.8679 3.83932C62.8819 5.43503 66.2439 4.40428 65.653 2.67827C65.153 1.21772 62.3019 0.535097 61.5619 1.69906ZM71.091 2.66854C71.593 5.20262 74.903 5.4856 74.903 2.99333C74.903 1.60182 74.261 0.977539 72.83 0.977539C71.399 0.977539 70.86 1.50166 71.091 2.66854ZM51.903 37.9288C51.903 65.4799 51.949 66.1285 53.903 66.1285C55.857 66.1285 55.903 65.4799 55.903 37.9288C55.903 10.3777 55.857 9.72916 53.903 9.72916C51.949 9.72916 51.903 10.3777 51.903 37.9288ZM61.903 37.9288C61.903 65.4799 61.949 66.1285 63.903 66.1285C65.857 66.1285 65.903 65.4799 65.903 37.9288C65.903 10.3777 65.857 9.72916 63.903 9.72916C61.949 9.72916 61.903 10.3777 61.903 37.9288ZM70.903 37.9288C70.903 65.4799 70.949 66.1285 72.903 66.1285C74.857 66.1285 74.903 65.4799 74.903 37.9288C74.903 10.3777 74.857 9.72916 72.903 9.72916C70.949 9.72916 70.903 10.3777 70.903 37.9288ZM20.452 47.4097C20.11 51.5551 19.578 57.4624 19.269 60.5372C18.746 65.7415 18.852 66.1285 20.805 66.1285C22.697 66.1285 22.903 65.5693 22.903 60.4302C22.903 57.2952 23.192 52.6831 23.545 50.1791L24.186 45.6283L27.614 55.9367C30.199 63.7082 31.426 66.1703 32.601 65.9437C33.575 65.7551 35.548 61.8538 37.871 55.5235L41.585 45.4046L42.237 52.12C42.595 55.8132 42.892 60.4769 42.896 62.482C42.902 65.4818 43.259 66.1285 44.91 66.1285C46.785 66.1285 46.881 65.6646 46.371 59.0786C44.868 39.6539 44.911 39.8736 42.573 39.8765C40.756 39.8785 39.933 41.1834 37.511 47.8988C35.921 52.3097 34.21 56.9908 33.709 58.3026C32.912 60.3913 32.349 59.3956 29.171 50.2803C26.009 41.2097 25.257 39.8736 23.309 39.8736C21.241 39.8736 21.027 40.4376 20.452 47.4097ZM82.903 47.9329C79.303 49.6949 79.0469 53.7761 82.3919 56.0738C89.4329 60.9106 89.4419 60.9222 87.9169 62.7085C86.894 63.9075 85.5719 64.2284 83.1989 63.854C80.8559 63.4835 79.903 63.7072 79.903 64.6251C79.903 67.6153 89.0739 67.0046 91.1169 63.8793C92.8449 61.2383 91.8709 58.3026 88.6529 56.4482C83.271 53.3462 82.6189 52.5605 84.0459 50.888C84.8619 49.9321 86.2579 49.6181 88.0969 49.9759C91.561 50.6498 92.072 48.1847 88.6529 47.293C85.7059 46.5258 85.799 46.5151 82.903 47.9329ZM99.1309 47.6908C94.2889 49.5821 95.021 55.1714 100.439 57.6841C103.216 58.9716 103.965 59.8487 103.72 61.5251C103.458 63.3221 102.77 63.6975 99.7379 63.6975C94.977 63.6975 93.8919 64.8303 97.4079 66.1304C101.363 67.5919 106.711 65.7502 107.511 62.6521C108.408 59.1758 107.459 57.6919 102.889 55.4252C97.5549 52.7793 97.7119 50.0313 103.186 50.1947C107.342 50.3192 108.38 48.2645 104.653 47.293C101.935 46.5851 101.969 46.5832 99.1309 47.6908ZM111.883 52.4662C112.957 55.1141 114.525 58.887 115.369 60.8512C117.515 65.8465 117.331 66.9035 113.749 70.1581C111.385 72.3052 110.88 73.3019 111.735 74.1333C112.59 74.9647 113.531 74.6487 115.487 72.874C118.487 70.1503 120.842 65.9573 124.277 57.2193C125.609 53.8295 127.018 50.291 127.408 49.3545C127.95 48.0544 127.62 47.6528 126.01 47.6528C124.851 47.6528 123.88 48.2003 123.851 48.8683C123.732 51.6854 119.09 61.6797 118.545 60.2941C118.23 59.4918 117.024 56.3189 115.866 53.2441C114.304 49.0988 113.264 47.6528 111.846 47.6528C109.966 47.6528 109.967 47.7384 111.883 52.4662Z" fill="white"></path> </svg> 