<?xml version="1.0" encoding="UTF-8"?> <svg xmlns="http://www.w3.org/2000/svg" width="160" height="74" viewBox="0 0 160 74" fill="none"> <path fill-rule="evenodd" clip-rule="evenodd" d="M40.8352 3.15847C40.744 3.24543 40.6694 4.52841 40.6694 6.00954V8.70213H41.7878C42.9002 8.70213 42.9062 8.70664 42.9062 9.53369V10.3652H40.1559C37.2868 10.3652 36.4443 10.5722 36.4443 11.2764C36.4443 12.2132 36.8156 12.266 43.4033 12.266C49.9909 12.266 50.3623 12.2132 50.3623 11.2764C50.3623 10.5722 49.5197 10.3652 46.6506 10.3652H43.9004V9.53369C43.9004 8.72185 43.924 8.70213 44.8945 8.70213H45.8886V5.85106V3H43.4448C42.1005 3 40.9261 3.07128 40.8352 3.15847ZM44.3974 4.66312C44.6708 4.92447 44.8945 5.34429 44.8945 5.59613C44.8945 6.08675 43.8062 7.03901 43.2455 7.03901C42.7385 7.03901 41.9121 6.15541 41.9121 5.61348C41.9121 5.00145 42.7631 4.18794 43.4033 4.18794C43.6767 4.18794 44.124 4.40177 44.3974 4.66312ZM42.9062 5.63082C42.9062 5.97081 43.0402 6.09887 43.3384 6.04399C43.9861 5.92472 44.0584 5.1383 43.4214 5.1383C43.0658 5.1383 42.9062 5.29083 42.9062 5.63082ZM35.3346 14.3413C34.3787 15.5832 33.4619 17.6538 33.4619 18.5711V19.156H43.4033C54.6375 19.156 53.6727 19.3611 52.9373 17.1311C52.7134 16.4518 52.1154 15.3199 51.6082 14.6157L50.6863 13.3351L43.4463 13.2721L36.206 13.2092L35.3346 14.3413ZM32.4449 20.6224C32.1974 21.0646 32.2334 21.2059 32.6832 21.554L33.2134 21.9646V39.8077V57.6506L43.3411 57.5886L53.4689 57.5266L53.5326 39.7326C53.5897 23.794 53.6374 21.9097 53.9911 21.6626C54.2195 21.5027 54.35 21.1418 54.3003 20.8058L54.2145 20.2252L43.4756 20.1632L32.7367 20.1014L32.4449 20.6224ZM36.881 38.9446L36.8171 55.6259H36.0715H35.3259L35.2613 38.9947C35.2021 23.7786 35.2317 22.339 35.6063 22.0758C35.8923 21.8748 36.1563 21.8598 36.4804 22.0256C36.928 22.2547 36.9424 22.8634 36.881 38.9446ZM40.279 22.1428C40.6264 22.4751 40.6689 24.3131 40.6657 38.8334C40.6634 47.808 40.567 55.2937 40.4512 55.4684C40.3351 55.6432 39.9735 55.7501 39.6472 55.706L39.0539 55.6259L38.9893 38.9947C38.9294 23.5702 38.9555 22.3419 39.3474 22.0665C39.8694 21.6999 39.8105 21.6951 40.279 22.1428ZM44.0105 22.2977C44.3514 22.7629 44.3974 24.7289 44.3974 38.8255C44.3974 49.4004 44.3102 54.9813 44.1402 55.2852C43.83 55.8392 42.7713 55.8953 42.56 55.3688C42.477 55.1621 42.4091 47.6857 42.4091 38.7547C42.4091 24.3093 42.4524 22.4749 42.7996 22.1428C43.3233 21.6424 43.5519 21.6716 44.0105 22.2977ZM47.8165 38.9446L47.7526 55.6259H47.007H46.2614L46.1968 38.9947C46.1377 23.7786 46.1672 22.339 46.5418 22.0758C46.8278 21.8748 47.0918 21.8598 47.4159 22.0256C47.8635 22.2547 47.8779 22.8634 47.8165 38.9446ZM51.2145 22.1428C51.5619 22.4751 51.6044 24.3131 51.6012 38.8334C51.599 47.808 51.5025 55.2937 51.3867 55.4684C51.2706 55.6432 50.909 55.7501 50.5827 55.706L49.9894 55.6259L49.9248 38.9947C49.8649 23.5702 49.891 22.3419 50.283 22.0665C50.8049 21.6999 50.746 21.6951 51.2145 22.1428ZM67.8839 24.5975C66.9335 24.9964 66.2145 25.9865 66.0863 27.0722C65.8902 28.7358 66.4037 29.7798 68.386 31.7482C70.548 33.8948 70.7421 34.2263 70.7421 35.7716C70.7421 37.1786 70.1553 37.9255 69.0498 37.9255C68.1273 37.9255 67.5459 37.4907 67.3019 36.6186C67.0205 35.6131 66.1213 35.6074 66.1984 36.6114C66.2752 37.6107 67.024 38.4658 68.1551 38.8464C69.996 39.4656 71.6706 38.2862 71.9172 36.1971C72.1321 34.3726 71.6468 33.3491 69.7266 31.5774C68.7665 30.6912 67.8191 29.6776 67.6217 29.3248C67.1098 28.4101 67.1614 26.6933 67.7209 26.0328C68.6425 24.9449 70.7421 25.6379 70.7421 27.0302C70.7421 27.565 71.4064 27.8819 71.7797 27.5251C72.1443 27.1765 71.6246 25.7767 70.8835 25.1112C70.2393 24.5327 68.676 24.2649 67.8839 24.5975ZM80.5252 25.168L79.5651 26.0088L79.491 32.3619C79.4338 37.2874 79.4878 38.7569 79.7313 38.9006C80.466 39.3347 80.6835 38.6167 80.6835 35.7583V32.9362H81.6465H82.6099L83.4111 35.7278C84.2852 38.7732 84.5415 39.2658 85.044 38.8671C85.2985 38.6651 85.1949 38.0151 84.5248 35.6124L83.6878 32.61L84.2002 32.2669C84.9921 31.7366 85.4056 30.4987 85.4056 28.6596C85.4056 25.9202 84.5614 24.6586 82.5858 24.4457C81.5909 24.3386 81.3933 24.4079 80.5252 25.168ZM88.7146 24.8463C87.4081 25.608 87.2895 26.0397 87.1876 30.4116C87.0606 35.859 87.2343 37.2612 88.1445 38.1313C89.3566 39.2902 90.9912 39.2803 92.3025 38.1059C92.8915 37.5784 93.0361 36.8687 92.6062 36.6148C92.4657 36.5318 92.0296 36.7927 91.6366 37.1947C90.7094 38.1436 89.6317 38.185 88.9033 37.2995C88.4812 36.7868 88.388 36.3356 88.388 34.8048V32.9362H89.8238C92.3738 32.9362 93.1102 31.978 93.1102 28.6596C93.1102 26.2046 92.7709 25.3089 91.6272 24.7434C90.6427 24.2568 89.6668 24.2913 88.7146 24.8463ZM96.5308 24.7548C95.2123 25.4388 95.0985 26.0005 95.0985 31.8231C95.0985 36.9265 95.1208 37.1759 95.6373 37.8034C96.6245 39.0032 98.4718 39.357 99.5907 38.5606C99.806 38.4074 100.172 38.003 100.404 37.662C100.771 37.1225 100.779 37.0051 100.464 36.7552C100.17 36.5216 99.9762 36.6038 99.4235 37.1968C98.5685 38.1142 97.5622 38.1641 96.6921 37.3323C96.1214 36.7865 96.0775 36.5917 96.1443 34.897L96.2169 33.055L97.7916 32.9352C99.1792 32.8297 99.4521 32.7235 100.091 32.0405C100.793 31.2885 100.815 31.1913 100.815 28.7663C100.815 26.8446 100.72 26.1288 100.405 25.6693C99.5801 24.4657 97.8677 24.0615 96.5308 24.7548ZM113.843 24.8308C112.556 25.5811 112.481 26.048 112.554 32.8174C112.611 38.1218 112.673 38.9947 112.993 38.9947C113.3 38.9947 113.378 38.4832 113.436 36.0842L113.505 33.1738H115.362H117.218V35.9994C117.218 38.2045 117.295 38.8531 117.567 38.9529C117.758 39.0232 117.982 39.0168 118.064 38.9386C118.145 38.8607 118.212 35.9516 118.212 32.4743C118.212 25.5579 118.195 25.468 116.718 24.7379C115.752 24.2604 114.767 24.2922 113.843 24.8308ZM120.449 31.5898C120.449 35.5537 120.516 38.8607 120.598 38.9386C120.679 39.0168 120.903 39.0232 121.095 38.9529C121.369 38.8524 121.443 38.1686 121.443 35.7483V32.6713L122.476 32.7444L123.509 32.8174L124.325 35.7606C125.164 38.7899 125.412 39.2929 125.919 38.9933C126.274 38.7839 126.199 38.3135 125.291 35.0336L124.589 32.4981L125.377 31.6396C126.138 30.8114 126.165 30.7064 126.165 28.6396C126.165 25.211 125.394 24.383 122.201 24.383H120.449V31.5898ZM127.275 24.6336C127.011 25.0425 127.434 25.2941 128.526 25.3768L129.521 25.4521L129.645 32.1642C129.713 35.8561 129.853 38.8764 129.955 38.8761C130.058 38.8761 130.252 38.8759 130.386 38.8759C130.54 38.8759 130.656 36.3667 130.697 32.164L130.763 25.4521L131.882 25.3333C132.655 25.2511 133 25.1045 133 24.8582C133 24.5666 132.495 24.4897 130.224 24.4348C128.373 24.3901 127.39 24.4564 127.275 24.6336ZM72.7304 25.0879C72.7304 25.502 72.8899 25.5709 73.8488 25.5709H74.9672V32.198C74.9672 37.6091 75.0301 38.8481 75.3097 38.9507C76.1249 39.2499 76.2098 38.6008 76.2098 32.0706V25.5982L77.2661 25.5251C78.0053 25.474 78.3224 25.3452 78.3224 25.0957C78.3224 24.804 77.8149 24.7272 75.5264 24.6721C72.8581 24.608 72.7304 24.627 72.7304 25.0879ZM101.938 24.8506C101.639 25.3129 102.088 25.5709 103.191 25.5709H104.294V32.2234C104.294 36.5 104.383 38.8759 104.543 38.8759C104.679 38.8759 104.875 38.9027 104.978 38.9353C105.08 38.9678 105.22 36.0011 105.288 32.3422L105.413 25.6897L106.531 25.5709C107.304 25.4887 107.649 25.3421 107.649 25.0957C107.649 24.8042 107.144 24.7272 104.873 24.6724C103.156 24.631 102.036 24.699 101.938 24.8506ZM83.7974 26.1281C84.0491 26.4719 84.163 27.2523 84.163 28.6377C84.163 31.1811 83.7472 31.7482 81.8829 31.7482H80.6835V29.0528C80.6835 26.7821 80.7521 26.3003 81.1184 25.995C82.0111 25.2516 83.1984 25.3105 83.7974 26.1281ZM91.5255 26.0786C92.0161 26.5968 92.2769 28.8342 92.0072 30.2091C91.7542 31.498 91.1018 31.9858 89.6307 31.9858H88.388V29.3918C88.388 27.9651 88.4606 26.6168 88.5496 26.3956C88.7477 25.9021 90.0368 25.3552 90.644 25.5068C90.889 25.5681 91.286 25.8254 91.5255 26.0786ZM99.5378 26.4255C99.6934 26.7517 99.8206 27.8739 99.8206 28.9193C99.8206 30.6199 99.7565 30.8808 99.2105 31.4025C98.7241 31.8677 98.3466 31.9858 97.3465 31.9858H96.0926V29.4253C96.0926 26.6876 96.3416 25.9689 97.4228 25.5866C98.1758 25.32 99.2058 25.7287 99.5378 26.4255ZM116.955 26.4885C117.122 26.8727 117.207 28.1511 117.165 29.6211L117.094 32.1046H115.354H113.614L113.543 29.5215C113.487 27.474 113.555 26.8187 113.869 26.3607C114.677 25.1818 116.42 25.254 116.955 26.4885ZM124.604 26.1547C125.085 26.69 125.171 27.0544 125.171 28.5648C125.171 30.1374 125.1 30.412 124.561 30.9274C124.075 31.3926 123.697 31.5106 122.697 31.5106H121.443V28.5805C121.443 26.9687 121.527 25.5685 121.63 25.469C121.732 25.3694 122.316 25.3409 122.926 25.406C123.723 25.4909 124.197 25.7023 124.604 26.1547ZM68.0169 43.7063C67.5193 43.8667 66.9159 44.325 66.5878 44.7914C66.0326 45.5804 66.0199 45.7372 66.0199 51.7482C66.0199 57.1678 66.0672 57.9153 66.4178 58.0438C66.6365 58.1241 66.9147 58.0405 67.0354 57.8583C67.1562 57.6758 67.2566 54.8269 67.2589 51.5275C67.2624 45.8477 67.2889 45.5032 67.7597 45.0532C68.4302 44.4122 69.5315 44.4459 70.2018 45.1278C70.7277 45.6631 70.7421 45.8415 70.7421 51.7879C70.7421 57.1709 70.7893 57.9153 71.14 58.0438C71.3587 58.1241 71.6368 58.0405 71.7576 57.8583C71.8784 57.6758 71.9788 54.8269 71.981 51.5275C71.9845 45.8477 72.0111 45.5032 72.4818 45.0532C73.1504 44.4141 74.2536 44.4459 74.9195 45.1235C75.4364 45.6493 75.458 45.8909 75.5222 51.8354C75.5865 57.8222 75.6029 58.0018 76.0856 58.0018C76.5677 58.0018 76.5846 57.8222 76.649 52.0048C76.7216 45.459 76.6082 44.7564 75.3527 43.97C74.4614 43.4119 72.8599 43.4466 72.0168 44.0425C71.3664 44.5022 71.3127 44.5051 70.7294 44.1085C69.8553 43.5146 69.0028 43.3882 68.0169 43.7063ZM88.7472 43.6464C87.4585 44.0002 86.8178 44.8745 86.6993 46.4412C86.565 48.2136 87.0765 49.1948 89.1332 51.1117C90.943 52.7986 91.3705 53.4961 91.3705 54.7632C91.3705 56.0433 91.1858 56.4137 90.339 56.8324C89.3814 57.3056 88.4296 56.8929 87.8296 55.7444C87.591 55.2871 87.2555 54.9131 87.084 54.9131C86.6103 54.9131 86.5705 55.862 87.0102 56.6748C87.893 58.3068 90.3771 58.576 91.6811 57.1811C92.2764 56.5444 92.3646 56.2529 92.3646 54.9248C92.3646 52.8634 92.1161 52.3574 90.2381 50.5973C87.6683 48.1887 87.1804 47.0717 88.0197 45.5201C88.7636 44.1447 90.7586 44.411 91.2355 45.9494C91.534 46.9126 92.3646 47.0311 92.3646 46.1105C92.3646 44.3765 90.5612 43.1482 88.7472 43.6464ZM96.4053 43.5635C95.6033 43.7027 94.4473 44.8992 94.2627 45.7814C94.0119 46.9803 94.0787 55.0687 94.3469 55.9626C94.8204 57.5406 96.3518 58.4081 97.9763 58.0184C98.7673 57.8286 99.8206 56.7818 99.8206 56.1852C99.8206 55.547 99.1409 55.6449 98.481 56.3783C97.7382 57.204 96.4637 57.2479 95.8053 56.4708C95.4479 56.0486 95.347 55.5237 95.347 54.0837V52.2379L96.8502 52.134C98.1351 52.0452 98.4689 51.9197 99.1491 51.2697C99.9213 50.5322 99.9474 50.4398 100.029 48.1673C100.095 46.3573 100.023 45.6567 99.7135 45.0848C99.0949 43.9413 97.762 43.3283 96.4053 43.5635ZM112.496 43.5509C110.31 44.2045 110.259 44.3941 110.259 51.8302C110.259 57.7262 110.289 58.15 110.694 58.0757C111.091 58.0027 111.14 57.4544 111.253 51.7406C111.377 45.5196 111.381 45.4832 111.964 45.0318C112.711 44.4545 113.524 44.4545 114.27 45.0318C114.857 45.4856 114.857 45.4887 114.931 51.8185C114.999 57.633 115.039 58.1448 115.428 58.0735C115.81 58.0034 115.863 57.3871 115.975 51.7406C116.099 45.5196 116.103 45.4832 116.686 45.0318C117.433 44.4545 118.246 44.4545 118.992 45.0318C119.579 45.4856 119.579 45.4887 119.653 51.8185C119.721 57.633 119.761 58.1448 120.15 58.0733C120.534 58.0027 120.579 57.4061 120.639 51.6232L120.706 45.2511L119.856 44.4393C118.755 43.3863 117.409 43.2718 116.162 44.1247C115.486 44.587 115.471 44.587 114.795 44.1337C114.038 43.626 113.068 43.3799 112.496 43.5509ZM78.9437 49.8168C78.9437 56.6214 79.0272 57.0683 80.4267 57.7601C81.3495 58.2163 82.2507 58.218 83.1661 57.7656C84.6436 57.035 84.66 56.9495 84.66 49.9896C84.66 43.7861 84.6476 43.6277 84.163 43.6277C83.6791 43.6277 83.6659 43.7861 83.6659 49.5562C83.6659 53.4565 83.5697 55.6862 83.385 56.0737C83.0147 56.8509 81.901 57.3011 81.2158 56.9507C79.9868 56.322 79.9379 56.0412 79.9379 49.6332C79.9379 43.7861 79.9247 43.6277 79.4408 43.6277C78.9564 43.6277 78.9437 43.7861 78.9437 49.8168ZM102.057 49.8168C102.057 56.6214 102.141 57.0683 103.54 57.7601C104.463 58.2163 105.364 58.218 106.28 57.7656C107.757 57.035 107.774 56.9495 107.774 49.9896C107.774 43.7861 107.761 43.6277 107.277 43.6277C106.793 43.6277 106.78 43.7861 106.78 49.5562C106.78 53.4565 106.683 55.6862 106.499 56.0737C105.884 57.3636 103.944 57.3574 103.327 56.0638C103.149 55.6888 103.052 53.3952 103.052 49.5562C103.052 43.7861 103.038 43.6277 102.555 43.6277C102.07 43.6277 102.057 43.7861 102.057 49.8168ZM98.3294 45.0532C98.7579 45.4628 98.8265 45.8451 98.8265 47.8261C98.8265 50.6783 98.6128 50.9929 96.6754 50.9929H95.347V48.3352C95.347 45.9337 95.399 45.6248 95.8873 45.1278C96.5576 44.4459 97.6589 44.4122 98.3294 45.0532ZM31.1185 58.969C30.9037 59.1745 30.728 59.4342 30.728 59.5461C30.728 59.9018 31.4925 60.4965 31.9498 60.4965C32.5222 60.4965 33.2134 61.2339 33.2134 61.8445C33.2134 62.4352 32.5632 63.0206 31.6702 63.2335C30.8227 63.4357 30.4174 63.8954 30.4174 64.6543C30.4174 66.0071 29.9608 65.961 43.3951 65.961C55.0516 65.961 55.7763 65.9363 56.1643 65.5264C57.0078 64.6355 56.5035 63.6538 54.9601 63.1812C54.5501 63.0558 54.0535 62.6799 53.8564 62.3461C53.5388 61.8072 53.5462 61.6694 53.9245 61.1178C54.1586 60.7761 54.5635 60.4965 54.8239 60.4965C55.3078 60.4965 56.0785 59.9127 56.0785 59.5461C56.0785 59.4342 55.9028 59.1745 55.6881 58.969C55.3439 58.6402 53.8847 58.5957 43.4033 58.5957C32.9218 58.5957 31.4627 58.6402 31.1185 58.969ZM27 68.5745V70H43.279H59.558V68.5745V67.1489H43.279H27V68.5745Z" fill="white"></path> </svg> 