<?xml version="1.0" encoding="UTF-8"?> <svg xmlns="http://www.w3.org/2000/svg" width="160" height="74" viewBox="0 0 160 74" fill="none"> <path fill-rule="evenodd" clip-rule="evenodd" d="M107.524 8.11915C107.063 8.30905 106.86 8.4981 106.647 8.93627C106.537 9.16284 106.509 9.30227 106.507 9.62315C106.504 10.2865 106.794 10.7615 107.373 11.0403C107.635 11.1667 107.757 11.1899 108.242 11.2058C108.724 11.2216 108.851 11.2072 109.126 11.1056C110.483 10.6031 110.534 8.77423 109.208 8.15593C108.962 8.04112 108.824 8.01586 108.376 8.00376C107.907 7.99113 107.799 8.00571 107.524 8.11915ZM20.372 10.8844C19.053 13.4121 18.7455 14.0027 17.9096 15.6126L17.0665 17.2366L18.2321 19.496C18.8732 20.7388 19.4149 21.7793 19.4359 21.8083C19.457 21.8374 19.9882 22.8598 20.6165 24.0803C21.2448 25.3008 21.8008 26.3708 21.8519 26.458C21.9031 26.5451 22.4226 27.5438 23.0062 28.6771C23.59 29.8104 24.1942 30.9755 24.3491 31.2661C24.5039 31.5567 24.9872 32.484 25.423 33.3267C25.8589 34.1695 26.4387 35.287 26.7114 35.81C27.7471 37.7959 28.3604 38.9763 29.1274 40.4597C29.5632 41.3024 30.0464 42.2297 30.2013 42.5203C30.3562 42.8109 30.9366 43.9284 31.491 45.0036C32.0454 46.0788 32.5162 46.9824 32.5371 47.0114C32.5581 47.0405 32.9329 47.7597 33.3702 48.6097L34.165 50.1552H35.9282C36.8979 50.1552 37.6913 50.1412 37.6913 50.1242C37.6913 50.1072 37.477 49.6852 37.2153 49.1864C36.9535 48.6876 36.3463 47.5186 35.8661 46.5887C35.3858 45.6588 34.9023 44.7315 34.7916 44.5281C34.6809 44.3247 34.1006 43.2072 33.5022 42.0448C32.9038 40.8824 32.3968 39.9075 32.3756 39.8785C32.3544 39.8494 31.8108 38.8032 31.1676 37.5537C30.5244 36.3041 29.9809 35.2579 29.9598 35.2288C29.9388 35.1998 29.4001 34.1655 28.7628 32.9305C28.1255 31.6954 27.55 30.5882 27.484 30.47L27.3639 30.2552L28.0643 28.9113C28.4496 28.1722 29.0971 26.9256 29.5033 26.1409C29.9095 25.3563 30.3928 24.429 30.5773 24.0803C30.7618 23.7316 31.3296 22.6379 31.8391 21.6498C32.3486 20.6618 32.8801 19.6394 33.0202 19.3779C33.1604 19.1163 33.7041 18.0701 34.2284 17.053C34.7528 16.0359 35.2964 14.9898 35.4365 14.7282C35.5766 14.4667 36.0963 13.4681 36.5914 12.5091C37.0865 11.5501 37.621 10.522 37.7793 10.2243C37.9376 9.9267 38.0671 9.65887 38.0671 9.62918C38.0671 9.59325 37.4811 9.57988 36.3145 9.58913L34.5619 9.60307L34.3921 9.92009C34.2986 10.0945 33.8518 10.9504 33.3991 11.8222C32.9464 12.694 32.3409 13.8591 32.0536 14.4112C31.7663 14.9634 31.2471 15.962 30.8998 16.6303C30.5525 17.2987 30.0207 18.3211 29.7181 18.9023C29.4155 19.4835 28.8719 20.5297 28.5103 21.2271C28.1488 21.9246 27.6169 22.947 27.3285 23.4991C27.0401 24.0513 26.5456 25.0023 26.2295 25.6126C25.9136 26.2228 25.6385 26.7393 25.6184 26.7602C25.5802 26.7999 25.4258 26.5186 24.5314 24.7797L23.9943 23.7356L24.7289 22.3228C25.4878 20.8633 26.1897 19.5144 27.1409 17.6871C27.4435 17.1059 28.0111 16.0122 28.4021 15.2566C28.7932 14.501 29.3129 13.5024 29.5571 13.0375C30.5811 11.0875 31.302 9.67921 31.302 9.62896C31.302 9.59335 30.7102 9.57993 29.5474 9.58913L27.7929 9.60307L27.5467 10.0786C27.0952 10.9507 25.4402 14.1359 24.9934 14.9924C24.751 15.4574 24.2436 16.4322 23.8659 17.1587C22.8255 19.16 22.273 20.2183 22.2423 20.2686C22.2135 20.3158 21.9143 19.7703 21.0943 18.176L20.6121 17.2382L21.4271 15.6662C21.8754 14.8016 22.4051 13.7851 22.6043 13.4073C23.5722 11.5718 24.5369 9.68914 24.5369 9.63599C24.5369 9.5933 24.0476 9.57665 22.7956 9.57665H21.0544L20.372 10.8844ZM52.1499 9.77326C52.1927 9.84686 53.1617 11.8077 53.4236 12.3506C53.5638 12.6412 54.0679 13.6608 54.5439 14.6164C55.0199 15.5721 55.4094 16.3601 55.4094 16.3675C55.4094 16.375 55.7714 17.109 56.2139 17.9988L57.0183 19.6164L56.5693 20.5274C56.1152 21.4492 55.5358 22.6196 54.5099 24.6879C54.1999 25.3127 53.8056 26.1152 53.6336 26.4712L53.3209 27.1184H54.7576H56.1944L56.4971 26.4976C57.0423 25.3798 57.8519 23.7387 58.6511 22.1318C59.083 21.2635 59.4362 20.5469 59.4362 20.5393C59.4362 20.5318 59.8591 19.6765 60.3758 18.6389C60.8926 17.6012 61.3154 16.7452 61.3154 16.7367C61.3154 16.7281 61.6506 16.0469 62.0602 15.2227C62.4699 14.3986 62.9885 13.3499 63.2127 12.8922L63.6205 12.06H65.2339H66.8475L66.7187 12.311C66.6479 12.449 66.4927 12.764 66.374 13.011C66.2551 13.258 65.769 14.2415 65.2937 15.1965C64.8184 16.1514 64.4295 16.9391 64.4295 16.9468C64.4295 16.9545 63.9705 17.8814 63.4094 19.0066C62.8483 20.1318 62.3893 21.0592 62.3893 21.0676C62.3893 21.0759 61.9885 21.8879 61.4987 22.8721C60.2139 25.4539 59.4362 27.0414 59.4362 27.0826C59.4362 27.1414 66.5434 27.1235 67.2215 27.063C68.5541 26.9442 69.527 26.6714 70.5503 26.1296C72.4225 25.1385 74.0362 23.3387 74.7422 21.4543C75.59 19.1918 75.4148 16.4047 74.2979 14.3848C73.1563 12.3201 71.1813 10.6966 69.0663 10.0842C67.8978 9.74584 68.5443 9.76956 59.9556 9.74996C55.6493 9.74013 52.1368 9.75065 52.1499 9.77326ZM60.7248 12.0787C60.7248 12.1047 60.0509 13.4863 59.3293 14.9396C58.9975 15.608 58.6667 16.2841 58.5942 16.442L58.4624 16.7291L58.1381 16.0721C57.9597 15.7108 57.674 15.1298 57.5031 14.7811C57.3322 14.4323 56.9618 13.6774 56.6799 13.1035L56.1675 12.06H58.4462C59.6994 12.06 60.7248 12.0684 60.7248 12.0787ZM69.8409 13.2524C71.4393 14.511 72.3869 16.4226 72.3929 18.4004C72.3982 20.199 71.7321 21.725 70.3372 23.1091C69.497 23.9429 68.7657 24.3661 67.7445 24.6095C67.2133 24.7362 67.1315 24.7406 65.3302 24.7407L63.4658 24.7408L63.6459 24.3577C63.745 24.147 64.1095 23.404 64.4561 22.7066C64.8027 22.0091 65.2379 21.1294 65.4231 20.7516C65.6085 20.3738 66.007 19.5654 66.3087 18.9552C66.6105 18.3449 67.0091 17.5365 67.1946 17.1587C67.38 16.7809 67.8193 15.8893 68.1707 15.1773C68.5222 14.4654 68.9166 13.6629 69.0474 13.3941C69.178 13.1253 69.3109 12.9054 69.3425 12.9054C69.3742 12.9054 69.5984 13.0615 69.8409 13.2524ZM137.074 13.3519C137.03 13.3626 136.812 13.4 136.591 13.4349C135.591 13.5927 134.597 14.1053 133.89 14.8278C133.555 15.171 133.362 15.4461 133.098 15.958L132.888 16.3662L132.887 14.9519L132.886 13.5377L131.45 13.5518L130.013 13.5658V20.3289V27.092H131.436H132.859L132.89 22.9707C132.924 18.5462 132.921 18.5893 133.21 17.8674C133.604 16.8815 134.445 16.141 135.517 15.8342C135.789 15.7562 136.036 15.7347 136.644 15.736C137.354 15.7375 137.461 15.7507 137.852 15.8841C138.953 16.2598 139.641 16.9966 139.98 18.1626C140.103 18.585 140.103 18.5886 140.121 22.8527L140.139 27.1201L141.573 27.1061L143.007 27.092L143.023 23.2349C143.039 19.1732 143.005 18.1959 142.815 17.3382C142.574 16.2509 142.135 15.4402 141.402 14.7282C140.435 13.7887 139.455 13.4011 137.933 13.3557C137.505 13.343 137.118 13.3413 137.074 13.3519ZM83.0337 13.467C81.4857 13.7042 79.9957 14.502 79.099 15.5736C77.915 16.9887 77.3595 18.9069 77.5339 20.9778C77.743 23.4616 78.8007 25.2783 80.672 26.368C81.958 27.1169 83.7373 27.4267 85.4234 27.1953C88.0768 26.8311 90.0804 25.2252 90.7318 22.9405C90.9145 22.2997 91.0686 22.3631 89.3289 22.3636L87.8121 22.3641L87.6936 22.7481C87.3914 23.7282 86.4877 24.5271 85.3423 24.8269C84.8103 24.9662 83.612 24.9654 83.0872 24.8255C82.2187 24.5938 81.4236 24.0377 80.986 23.3558C80.6679 22.86 80.4157 22.0429 80.3493 21.2932L80.313 20.8837H85.6037H90.8944L90.9343 20.6856C90.9562 20.5766 90.9722 20.0951 90.9698 19.6156C90.9649 18.6481 90.8643 18.0583 90.569 17.2674C89.8008 15.2103 87.9566 13.8134 85.544 13.4612C84.8734 13.3633 83.6923 13.366 83.0337 13.467ZM96.9793 13.4612C95.2083 13.7336 93.9368 14.6784 93.4609 16.0756C93.2569 16.6747 93.2437 17.6782 93.4307 18.3731C93.6163 19.0624 94.2517 19.7851 95.0922 20.2628C95.4726 20.4789 96.6647 20.8438 98.0472 21.1671C99.9069 21.602 100.336 21.7621 100.864 22.2197C101.831 23.0574 101.446 24.6224 100.153 25.1125C99.8832 25.2147 99.7405 25.231 99.1409 25.2286C98.0232 25.224 97.3153 24.9631 96.6777 24.3209C96.3283 23.9689 96.0801 23.5247 95.995 23.0989L95.9323 22.7858H94.5434C92.937 22.7858 93.0815 22.7089 93.289 23.454C93.8886 25.6067 95.5313 26.8884 98.0919 27.2016C101.176 27.579 103.514 26.4083 103.981 24.2525C104.042 23.9725 104.057 23.6906 104.038 23.2085C103.995 22.1705 103.719 21.5444 103.017 20.9007C102.338 20.2768 101.616 19.9833 99.3841 19.4249C97.2724 18.8965 96.8464 18.7333 96.3563 18.2649C96.029 17.9521 95.9732 17.8024 95.9732 17.238C95.9732 16.7949 95.9908 16.7006 96.1238 16.4341C96.3998 15.881 96.9173 15.5602 97.7351 15.4353C98.3642 15.3393 99.1912 15.4749 99.7828 15.7711C100.059 15.9095 100.574 16.3945 100.772 16.7036C100.921 16.9357 101.111 17.4135 101.179 17.7267L101.21 17.872H102.551C104.082 17.872 103.948 17.928 103.809 17.3436C103.379 15.5302 102.117 14.1923 100.325 13.6494C99.4731 13.3913 97.98 13.3073 96.9793 13.4612ZM117.611 13.4584C115.179 13.8381 113.316 15.6185 112.722 18.1316C112.474 19.1801 112.412 20.5869 112.565 21.6708C112.998 24.7267 114.909 26.7864 117.692 27.1978C120.279 27.5801 122.565 26.5031 123.562 24.4332L123.732 24.0803L123.748 25.7447C123.765 27.5091 123.719 28.154 123.534 28.7546C123.184 29.8861 122.392 30.6631 121.181 31.0604C120.755 31.2003 120.666 31.2103 119.839 31.2117C119.072 31.2131 118.895 31.197 118.523 31.0917C117.746 30.8717 117.185 30.5431 116.728 30.0399C116.449 29.7318 116.027 28.9881 116.027 28.8031C116.027 28.708 115.962 28.7035 114.584 28.7035H113.142L113.219 29.0337C113.548 30.4371 114.32 31.5957 115.504 32.4653C115.801 32.6834 116.533 33.0629 116.993 33.2378C118.059 33.6424 119.776 33.8214 121.101 33.666C123.675 33.3641 125.612 31.7792 126.312 29.401C126.608 28.3963 126.604 28.5063 126.604 20.7256V13.5394H125.181H123.758L123.757 15.0585L123.755 16.5775L123.502 16.0995C122.735 14.6529 121.423 13.7241 119.775 13.4611C119.181 13.3663 118.208 13.3651 117.611 13.4584ZM106.899 20.3289V27.1184H108.322H109.745V20.3289V13.5394H108.322H106.899V20.3289ZM85.4417 15.7816C86.2954 15.9948 86.8322 16.324 87.3161 16.9313C87.8145 17.5567 88.0569 18.2477 88.0717 19.0857L88.0805 19.5892H84.2148H80.349L80.365 19.2458C80.3885 18.7441 80.5594 18.1193 80.8129 17.6078C81.2466 16.7328 82.166 16.0277 83.2215 15.7606C83.8324 15.606 84.7738 15.6149 85.4417 15.7816ZM120.406 15.9219C121.393 16.1003 122.276 16.6571 122.871 17.4757C123.333 18.1113 123.546 18.6459 123.68 19.5099C123.779 20.1496 123.778 20.448 123.675 21.1333C123.514 22.1969 123.101 23.0145 122.384 23.6882C121.82 24.2171 121.147 24.5559 120.398 24.6877C119.916 24.7725 118.746 24.7313 118.309 24.6142C116.979 24.2578 115.972 23.2171 115.593 21.8083C115.431 21.2058 115.39 19.9275 115.511 19.2291C115.81 17.5011 116.931 16.2997 118.577 15.9425C118.976 15.856 119.979 15.8447 120.406 15.9219ZM14.5606 22.0497L13.6851 23.742L13.9894 24.3338C14.3169 24.9707 15.2417 26.7502 15.9996 28.2016C16.2575 28.6956 16.8616 29.8606 17.3419 30.7906C17.8223 31.7205 18.2817 32.6002 18.3628 32.7455C18.4439 32.8908 19.0119 33.9845 19.625 35.176C20.2381 36.3675 20.757 37.3661 20.7781 37.3951C20.7992 37.4242 21.3428 38.4704 21.986 39.72C22.6293 40.9695 23.1729 42.0157 23.1941 42.0448C23.2154 42.0738 23.7173 43.0368 24.3096 44.1847C24.9019 45.3325 25.6846 46.8426 26.049 47.5403C26.4133 48.2381 26.8685 49.1117 27.0604 49.4817L27.4094 50.1545L29.1678 50.1548C30.1349 50.155 30.9262 50.1415 30.9262 50.1247C30.9262 50.0932 29.4313 47.1928 28.8859 46.166C28.7161 45.8464 28.2086 44.8715 27.7582 43.9997C27.3078 43.1279 26.728 42.0104 26.4698 41.5164C25.8935 40.4139 25.0405 38.7739 24.1339 37.0253C23.7572 36.2988 23.25 35.324 23.0068 34.859C22.7635 34.394 22.1595 33.229 21.6644 32.27C21.1694 31.311 20.674 30.3599 20.5635 30.1565C20.453 29.9531 19.9336 28.9545 19.4092 27.9374C18.8849 26.9203 18.3413 25.8741 18.2011 25.6126C18.0609 25.351 17.5053 24.2811 16.9664 23.2349C16.0435 21.4432 15.4681 20.3539 15.446 20.3564C15.4406 20.3571 15.0423 21.1191 14.5606 22.0497ZM11.7258 27.5015C11.4416 28.061 10.9917 28.9286 9.69144 31.4246C9.38862 32.0058 8.8328 33.0758 8.45627 33.8023C8.07973 34.5288 7.53605 35.5749 7.24816 36.1271C6.96027 36.6792 6.42857 37.7016 6.06663 38.399C5.70465 39.0965 5.17337 40.1189 4.88596 40.671C4.5986 41.2232 4.06712 42.2456 3.70491 42.943C3.34271 43.6404 2.8233 44.6391 2.5506 45.1621C2.27796 45.6852 1.70931 46.7789 1.28698 47.5926C0.864643 48.4063 0.402308 49.2967 0.259543 49.5713C0.116831 49.8459 0 50.0896 0 50.1129C0 50.1361 0.795328 50.1552 1.76736 50.1552H3.53466L3.57944 50.0349C3.60403 49.9687 4.02003 49.1544 4.50384 48.2252C4.98765 47.2961 5.63694 46.0485 5.94669 45.4527C6.25643 44.857 6.73353 43.9416 7.00687 43.4185C7.28021 42.8954 7.86003 41.7779 8.29535 40.9352C8.73068 40.0925 9.27415 39.0463 9.50309 38.6104C9.73203 38.1745 10.2095 37.2591 10.564 36.5762C10.9186 35.8933 11.3972 34.972 11.6276 34.5288C11.858 34.0856 12.0602 33.7231 12.0769 33.7231C12.14 33.7233 13.6376 36.6394 13.6376 36.7619C13.6376 36.8124 13.4472 37.2132 13.2146 37.6527C12.982 38.0923 12.4112 39.189 11.9462 40.0898C11.4812 40.9907 10.9497 42.0131 10.7651 42.3618C10.5805 42.7105 10.0611 43.7091 9.6109 44.5809C9.16064 45.4527 8.54427 46.6416 8.24107 47.2228C6.92483 49.7462 6.7651 50.0582 6.7651 50.1061C6.7651 50.1375 7.42846 50.1514 8.51716 50.1427L10.2692 50.1288L10.4522 49.7853C10.5528 49.5964 11.0483 48.6454 11.5532 47.6719C12.0581 46.6984 12.6942 45.4739 12.9667 44.9508C14.4192 42.1624 14.6773 41.6658 15.0332 40.9748C15.2466 40.5607 15.4366 40.2221 15.4555 40.2223C15.507 40.223 17.0201 43.1546 17.0201 43.2536C17.0201 43.3004 16.8061 43.7491 16.5445 44.2505C16.283 44.7519 15.7908 45.6971 15.4508 46.351C15.1108 47.0048 14.5396 48.1015 14.1814 48.7882C13.8232 49.4748 13.5302 50.0632 13.5302 50.0959C13.5302 50.1386 14.0194 50.1552 15.2721 50.1552H17.0139L17.5216 49.1909C17.8009 48.6606 18.2103 47.8733 18.4316 47.4415L18.8338 46.6564L19.7391 48.4047L20.6443 50.153L22.4027 50.1541C23.3698 50.1547 24.1611 50.1409 24.1611 50.1233C24.1611 50.0883 22.0219 45.934 21.9601 45.849C21.9389 45.82 21.3954 44.7738 20.7522 43.5242C20.109 42.2746 19.5653 41.2284 19.5437 41.1994C19.5223 41.1703 18.9785 40.1242 18.3354 38.8746C17.6923 37.625 17.1488 36.5788 17.1276 36.5498C17.1065 36.5207 16.5754 35.4983 15.9474 34.2778C15.3194 33.0573 14.7392 31.9398 14.6582 31.7945C14.5771 31.6492 14.1235 30.7813 13.65 29.8659C13.1766 28.9505 12.6385 27.9103 12.4542 27.5543C12.27 27.1984 12.0987 26.9071 12.0735 26.9071C12.0483 26.9071 11.8919 27.1746 11.7258 27.5015ZM53.1139 41.4504L53.1275 50.1288L54.5638 50.1428L56 50.1569L56.0039 44.3836L56.0077 38.6104L56.2446 39.0859C56.8304 40.2617 57.7949 42.2118 59.302 45.2678C59.5169 45.7037 59.969 46.6192 60.3066 47.3023C60.6441 47.9854 61.0977 48.9067 61.3144 49.3497L61.7085 50.1552H63.1509H64.5933L64.6402 50.0363C64.6661 49.971 65.0641 49.1601 65.5248 48.2344C65.9855 47.3087 66.3624 46.5446 66.3624 46.5363C66.3624 46.5281 66.8094 45.6247 67.3557 44.5288C67.902 43.4329 68.349 42.5294 68.349 42.5211C68.349 42.5084 69.7614 39.6549 70.1381 38.9065L70.255 38.6742L70.2819 44.4015L70.3087 50.1288L71.745 50.1428L73.1812 50.1569V41.4644V32.7719H71.7383H70.2954L70.0387 33.2871C69.8976 33.5704 69.6076 34.1589 69.3942 34.5948C69.1809 35.0307 68.6289 36.1452 68.1676 37.0715C67.7063 37.9978 67.3289 38.7619 67.3289 38.7695C67.3289 38.7772 66.8819 39.6801 66.3356 40.776C65.7893 41.8719 65.3423 42.775 65.3423 42.7831C65.3423 42.791 64.9698 43.5473 64.5146 44.4637C64.0593 45.38 63.5715 46.37 63.4305 46.6635C63.2842 46.968 63.1539 47.1774 63.1272 47.1511C63.1014 47.1257 62.7333 46.4004 62.3092 45.5393L61.5381 43.9736L62.2916 42.4544C63.0751 40.8746 63.5637 39.8876 64.4035 38.1877C64.6763 37.6356 65.1592 36.6607 65.4768 36.0214C66.3357 34.2922 67.0604 32.8142 67.0604 32.7918C67.0604 32.7809 66.4189 32.7719 65.6349 32.7719H64.2093L63.8965 33.4192C63.7245 33.7752 63.2828 34.6727 62.915 35.4138C62.5473 36.1548 61.9825 37.2961 61.6601 37.9499C61.3377 38.6038 60.8538 39.5786 60.5849 40.1162L60.096 41.0937L59.8258 40.5389C59.5232 39.9179 58.8801 38.6112 58.1743 37.1838C57.9157 36.6607 57.5172 35.8523 57.2888 35.3874C57.0604 34.9224 56.6769 34.1437 56.4365 33.657L55.9994 32.7719H54.5499H53.1004L53.1139 41.4504ZM144.295 36.4006C142.509 36.6212 141.283 37.4296 140.504 38.901L140.322 39.2444L140.308 37.9367L140.293 36.629H138.872H137.45V43.3921V50.1552H138.868H140.287L140.309 46.0736L140.331 41.9919L140.476 41.4675C140.678 40.7404 140.938 40.2741 141.395 39.8254C141.814 39.4137 142.214 39.1823 142.819 39.0017C143.401 38.8279 144.445 38.8273 145.02 39.0004C146.131 39.3351 146.805 40.053 147.159 41.2786C147.231 41.5272 147.247 42.1876 147.273 45.849L147.302 50.1288H148.725H150.148L150.176 46.0075C150.203 41.936 150.205 41.8811 150.324 41.4636C150.753 39.9645 151.755 39.081 153.235 38.8968C155.121 38.6623 156.515 39.5372 157.005 41.2631C157.12 41.6679 157.123 41.7474 157.14 45.9151L157.159 50.1552H158.579H160V45.8344C160 43.1866 159.979 41.3456 159.945 41.0797C159.776 39.7581 159.264 38.6196 158.492 37.8492C157.7 37.0594 156.778 36.6154 155.57 36.4433C154.885 36.3457 154.439 36.3454 153.785 36.4424C152.074 36.6962 150.702 37.6642 149.93 39.1624L149.727 39.5558L149.555 39.1837C148.978 37.9358 147.943 37.024 146.658 36.6322C145.963 36.4204 144.944 36.3205 144.295 36.4006ZM96.2823 36.4742C94.3011 36.6627 92.7975 37.7374 92.3697 39.2708C92.25 39.7 92.235 40.847 92.3435 41.2786C92.5403 42.0622 93.1592 42.8155 93.9961 43.2905C94.3572 43.4955 95.4878 43.8582 96.5369 44.1056C98.8673 44.6552 99.3261 44.8216 99.8458 45.3054C100.333 45.7589 100.481 46.4223 100.238 47.0624C99.9004 47.9496 99.1055 48.3605 97.8614 48.2908C96.3407 48.2055 95.2686 47.4255 94.9486 46.1718L94.8594 45.8226H93.5058C92.7613 45.8226 92.1387 45.8358 92.1223 45.852C92.1059 45.8681 92.1362 46.0762 92.1896 46.3143C92.6498 48.3657 94.2228 49.7632 96.5528 50.1906C97.2739 50.3229 99.0272 50.3217 99.6476 50.1886C100.786 49.9442 101.757 49.3843 102.308 48.6536C102.808 47.9915 102.991 47.4087 102.989 46.4831C102.987 45.1456 102.557 44.2869 101.557 43.6213C100.886 43.1747 100.363 42.9869 98.4698 42.5129C96.2842 41.9656 95.938 41.8426 95.4418 41.4372C95.0315 41.102 94.8975 40.8055 94.9058 40.2523C94.9157 39.5944 95.2078 39.0836 95.7546 38.7683C96.4161 38.3868 97.7686 38.3857 98.6127 38.766C99.2643 39.0596 99.9176 39.881 100.085 40.6173L100.151 40.9088H101.512C102.272 40.9088 102.872 40.888 102.872 40.8617C102.872 40.6975 102.571 39.7222 102.423 39.4061C102.063 38.6401 101.495 37.9469 100.816 37.4441C99.7487 36.6549 98.097 36.3015 96.2823 36.4742ZM111.06 36.4665C110.824 36.4893 110.365 36.5735 110.04 36.6538C106.765 37.463 104.872 40.3447 105.175 44.0611C105.24 44.8691 105.325 45.314 105.535 45.952C106.061 47.5564 107.15 48.8443 108.594 49.5729C109.09 49.8231 109.975 50.1137 110.55 50.2153C111.172 50.3251 112.93 50.3082 113.503 50.1868C115.186 49.8312 116.523 49.0492 117.392 47.912C117.904 47.2431 118.341 46.3068 118.472 45.598L118.509 45.3999H116.983H115.457L115.359 45.7301C115.077 46.6832 114.262 47.4743 113.215 47.8122C112.846 47.9313 112.657 47.9567 111.995 47.9765C111.317 47.9968 111.15 47.9847 110.768 47.8871C109.7 47.6148 108.856 46.9455 108.413 46.0203C108.206 45.5867 108.03 44.8978 107.99 44.3564L107.957 43.9205H113.248H118.54L118.581 43.5902C118.738 42.3159 118.478 40.7553 117.932 39.6935C117.263 38.3945 115.98 37.3147 114.523 36.8242C113.587 36.509 112.156 36.3612 111.06 36.4665ZM76.2416 40.7638C76.2416 45.2575 76.2666 45.7611 76.5355 46.6949C76.9397 48.0985 77.8479 49.2221 79.0523 49.8084C80.4013 50.4651 82.2326 50.5265 83.7047 49.9643C84.7583 49.5619 85.7106 48.6991 86.2056 47.6983L86.3624 47.3813L86.3768 48.7682L86.391 50.1552H87.8398H89.2886V43.3921V36.629H87.8389H86.3893L86.3883 40.3408C86.3874 44.0671 86.3597 44.7728 86.1908 45.3733C85.8279 46.6635 84.9671 47.5273 83.7047 47.8682C83.1567 48.0162 82.0303 48.0009 81.504 47.8383C81.2829 47.7699 81.007 47.6664 80.891 47.6081C80.047 47.1844 79.4485 46.3487 79.226 45.2832C79.1526 44.932 79.1409 44.3085 79.1409 40.7525V36.629H77.6913H76.2416V40.7638ZM121.022 40.7899C121.023 43.9835 121.041 45.092 121.097 45.5584C121.301 47.2326 121.867 48.3525 122.973 49.2664C123.975 50.0946 125.548 50.4912 127.067 50.2986C128.377 50.1326 129.223 49.7424 130.07 48.9135C130.52 48.4731 130.654 48.3016 130.875 47.8832L131.141 47.3813L131.155 48.7682L131.17 50.1552H132.618H134.067V43.3921V36.629H132.621H131.174L131.154 40.6842C131.134 44.6356 131.131 44.7505 131.018 45.1731C130.77 46.1027 130.406 46.7165 129.82 47.1964C129.209 47.6973 128.537 47.9321 127.597 47.9729C126.093 48.0382 124.942 47.4389 124.356 46.2845C123.927 45.4401 123.95 45.7347 123.932 40.922L123.916 36.629H122.468H121.02L121.022 40.7899ZM113.147 38.8455C113.835 39.0295 114.233 39.2484 114.686 39.6933C115.346 40.3413 115.662 41.0815 115.739 42.1564L115.774 42.6524H111.866H107.957L107.99 42.2677C108.034 41.7627 108.253 41.0297 108.498 40.5712C109.002 39.6268 109.986 38.9585 111.195 38.7393C111.615 38.663 112.681 38.7211 113.147 38.8455ZM60.4832 54.4424C58.1706 54.5607 55.9887 55.5836 54.6155 57.1932C53.6616 58.3113 53.0861 59.519 52.7446 61.1188C52.6079 61.7594 52.5979 61.8947 52.5962 63.1266C52.5945 64.3631 52.6036 64.4899 52.7384 65.111C53.4447 68.3661 55.5967 70.7108 58.6309 71.531C59.6776 71.814 59.8951 71.8297 63.1275 71.8564C65.1048 71.8727 66.1477 71.8632 66.1477 71.8289C66.1477 71.8001 65.4504 70.389 64.5982 68.6932C63.7459 66.9974 62.9575 65.4197 62.846 65.1872C62.7345 64.9547 62.5858 64.6516 62.5154 64.5136L62.3874 64.2626H63.9676H65.5476L65.9089 64.9891C66.1076 65.3887 66.4695 66.1198 66.7131 66.6138C66.9568 67.1078 67.4621 68.1302 67.836 68.8858C68.21 69.6414 68.6884 70.6103 68.8991 71.0389L69.2824 71.8182H70.7249C71.5183 71.8182 72.1565 71.8004 72.1431 71.7786C72.1297 71.7568 71.9319 71.3585 71.7036 70.8936C70.762 68.9762 70.4238 68.2917 69.7717 66.9837C69.043 65.5218 68.4564 64.3176 68.4564 64.2833C68.4564 64.2719 68.9879 64.2626 69.6376 64.2626H70.8188V63.2323V62.202H64.6173H58.4159L59.6971 64.7249C60.9024 67.0986 61.961 69.1965 62.0071 69.3032C62.0192 69.3309 61.6949 69.3378 61.2286 69.3197C59.7763 69.2632 58.7057 68.8975 57.6376 68.0933C57.1886 67.7552 57.0145 67.5791 56.645 67.0893C55.8241 66.0009 55.469 64.6445 55.534 62.8441C55.5769 61.6526 55.7343 60.989 56.1901 60.0773C57.1066 58.2443 58.7436 57.1761 60.8322 57.0481C62.5774 56.9411 64.1117 57.4847 65.1839 58.5899C65.6301 59.0499 65.7653 59.2312 66.0156 59.7054L66.2177 60.0885H67.7129C68.5352 60.0885 69.2081 60.0697 69.2081 60.0467C69.2081 60.0238 69.1369 59.7889 69.0499 59.5248C68.2893 57.2158 66.5318 55.5274 64.1342 54.8026C63.5736 54.6331 62.7033 54.4814 62.1477 54.4562C61.8523 54.4428 61.5141 54.4262 61.396 54.4193C61.2779 54.4123 60.8671 54.4227 60.4832 54.4424ZM106.738 56.6013V58.292H105.745H104.752V59.4797V60.6673L105.732 60.6817L106.711 60.6961L106.741 64.5532C106.772 68.7332 106.767 68.6608 107.084 69.5572C107.504 70.7453 108.483 71.4759 110.008 71.7384C110.33 71.7938 110.848 71.818 111.718 71.8181L112.966 71.8182V70.603V69.3877L112.148 69.3867C111.18 69.3854 110.732 69.3305 110.426 69.1752C110.094 69.007 109.921 68.8222 109.785 68.493L109.664 68.1989L109.649 64.4343L109.633 60.6697H111.301H112.968L112.954 59.4941L112.94 58.3185L111.289 58.3045L109.638 58.2905V56.6005V54.9105H108.188H106.738V56.6013ZM96.2273 58.191C94.6896 58.5088 93.5289 59.3606 92.8499 60.6697L92.6443 61.066L92.63 59.6782L92.6157 58.2903L91.1803 58.3044L89.745 58.3185L89.7313 65.0683L89.7177 71.8182H91.1646H92.6114L92.6303 67.7102C92.6492 63.6076 92.6493 63.6015 92.7734 63.1583C93.2698 61.3846 94.4965 60.4583 96.349 60.4583C98.1106 60.4583 99.2925 61.328 99.7393 62.953C99.8208 63.2497 99.8327 63.7407 99.8506 67.5517L99.8705 71.8182H101.321H102.771L102.749 67.3932C102.725 62.6702 102.723 62.6206 102.446 61.6571C101.919 59.817 100.565 58.5635 98.7016 58.1898C97.9801 58.0451 96.9309 58.0456 96.2273 58.191ZM79.1595 58.1899C77.3617 58.463 75.8348 59.3373 74.873 60.6445C73.9596 61.8859 73.5598 63.227 73.5582 65.0551C73.5566 66.9571 73.9882 68.3241 75.0096 69.6519C75.4787 70.2618 76.0692 70.7553 76.8322 71.1753C78.4983 72.0923 80.9705 72.2631 82.8993 71.5945C84.1041 71.1769 85.1138 70.4836 85.7733 69.6213C86.2858 68.9512 86.7468 67.9738 86.85 67.3386L86.8862 67.1158L85.3626 67.1158L83.8389 67.1159L83.7407 67.446C83.3107 68.8918 81.7492 69.81 79.9384 69.6818C79.1553 69.6264 78.5972 69.4478 78.0134 69.0659C77.0397 68.429 76.5233 67.4626 76.3711 65.993L76.3342 65.6363H81.6269H86.9196L86.9632 65.3854C87.0389 64.9491 87.0071 63.6414 86.9078 63.1047C86.7362 62.1772 86.3617 61.2958 85.8554 60.6273C84.9319 59.4082 83.6662 58.6297 82.0134 58.264C81.5613 58.1641 79.6556 58.1145 79.1595 58.1899ZM80.8955 60.4087C81.8843 60.5407 82.5244 60.826 83.0872 61.3858C83.745 62.0399 84.0611 62.7719 84.1186 63.7738L84.1496 64.3154H80.2431H76.3365L76.3741 63.9696C76.5868 62.0153 77.7876 60.7131 79.6374 60.4308C80.208 60.3437 80.3848 60.3406 80.8955 60.4087Z" fill="white"></path> </svg> 