<?xml version="1.0" encoding="UTF-8"?> <svg xmlns="http://www.w3.org/2000/svg" width="160" height="74" viewBox="0 0 160 74" fill="none"> <path fill-rule="evenodd" clip-rule="evenodd" d="M43.7343 9.3858C43.7343 9.59773 44.236 9.89444 44.849 10.0454L45.9637 10.3196L45.8419 16.9046C45.7223 23.3624 45.7011 23.4918 44.7272 23.6276C44.1813 23.7033 43.7343 23.9468 43.7343 24.1682C43.7343 24.3892 45.6605 24.5704 48.0149 24.5704C50.5771 24.5704 52.1273 24.4139 51.8762 24.1799C51.6454 23.9649 51.0598 23.7197 50.5744 23.6349C49.811 23.5013 49.6742 23.0869 49.5612 20.5654C49.4323 17.6874 49.4451 17.6502 50.5691 17.6502C51.4023 17.6502 51.9517 18.0559 52.6189 19.164C53.1198 19.9966 53.6097 20.6778 53.7072 20.6778C53.8043 20.6778 53.8841 19.1208 53.8841 17.2177C53.8841 13.5682 53.5218 12.909 52.6953 15.0552C52.2889 16.1109 51.9416 16.3527 50.8335 16.3527H49.4712V13.3251V10.2975H51.6569C53.6763 10.2975 53.9503 10.429 55.261 12.0276C56.0412 12.9791 56.8448 13.7576 57.0469 13.7576C57.4825 13.7576 57.5235 12.2369 57.1387 10.3516L56.8629 9H50.2986C46.6883 9 43.7343 9.17344 43.7343 9.3858ZM75.3542 11.1673C74.92 11.8883 73.9822 12.9 73.2708 13.4155C71.7603 14.5102 71.6239 15.0552 72.86 15.0552C73.679 15.0552 73.7426 15.3437 73.7426 19.0676C73.7426 23.99 74.2704 25.003 76.8361 25.003C78.637 25.003 80.8034 24.2564 80.8034 23.6358C80.8034 23.4364 80.3232 23.2729 79.7363 23.2729C77.4155 23.2729 77.273 23.0203 77.273 18.9015V15.0552H79.0382C80.509 15.0552 80.8034 14.9111 80.8034 14.1901C80.8034 13.4713 80.509 13.3251 79.0646 13.3251C77.3815 13.3251 77.322 13.275 77.1891 11.7365C77.0144 9.70846 76.3568 9.50431 75.3542 11.1673ZM68.0057 13.4073C65.1364 14.1274 65.1403 14.1235 66.1743 15.2027C66.9439 16.005 67.1231 16.7225 67.1231 18.9971C67.1231 22.1017 66.6849 22.8404 64.8438 22.8404C63.1148 22.8404 62.7101 21.7794 62.7101 17.2463C62.7101 12.9259 62.7635 12.9904 59.6762 13.5954C58.2309 13.8787 57.828 14.7862 58.9591 15.2117C59.4798 15.4072 59.621 16.2935 59.621 19.3669C59.621 22.6964 59.7512 23.4005 60.5036 24.1379C61.6488 25.2603 64.0225 25.2603 65.4784 24.1379C66.8945 23.0458 67.1231 23.0536 67.1231 24.1933C67.1231 25.0337 67.2859 25.0882 68.9986 24.82C71.2815 24.4623 72.0731 23.8265 70.9845 23.2245C70.323 22.8586 70.2122 22.122 70.2122 18.0867C70.2122 15.4959 70.063 13.2961 69.8812 13.198C69.6994 13.0998 68.8552 13.1941 68.0057 13.4073ZM83.7821 13.4739C81.7438 13.8407 81.0015 14.7053 82.3042 15.1953C82.7596 15.3666 82.9631 16.5279 83.0765 19.6017C83.2067 23.1293 83.3633 23.8711 84.0871 24.3897C85.3081 25.2638 87.2997 25.1483 89.0256 24.1025L90.5119 23.2024V24.1025C90.5119 25.1375 91.2162 25.227 93.8106 24.5207L95.5644 24.0437L94.5829 23.2647C93.6818 22.5493 93.601 22.1155 93.601 17.9772C93.601 15.4981 93.4885 13.3589 93.3508 13.2239C93.2127 13.089 92.3689 13.1642 91.4753 13.3917C88.444 14.162 88.4281 14.1759 89.519 15.0487C90.3879 15.7437 90.5119 16.2463 90.5119 19.0788C90.5119 21.6311 90.3645 22.3707 89.8138 22.5779C88.6519 23.0147 87.0552 22.8733 86.6775 22.2998C86.4815 22.0026 86.2216 19.8102 86.0998 17.4279L85.8783 13.0968L83.7821 13.4739ZM98.8966 13.4073C96.0273 14.1274 96.0312 14.1235 97.0652 15.2027C97.8741 16.0461 98.014 16.7065 98.014 19.6796C98.014 22.8071 97.9116 23.2374 97.0211 23.8464C96.0811 24.4887 96.2126 24.5263 99.4743 24.548C101.665 24.5622 102.821 24.413 102.648 24.1379C102.498 23.9001 102.089 23.7054 101.739 23.7054C100.765 23.7054 100.837 17.1079 101.821 16.1434C102.484 15.4937 102.616 15.5106 103.544 16.3657C104.372 17.1273 104.714 17.2056 105.475 16.8069C106.428 16.3069 106.682 14.8649 106.001 13.8117C105.274 12.6876 103.209 13.1167 101.838 14.6767L100.555 16.1365L100.815 14.7477C101.128 13.0704 100.893 12.906 98.8966 13.4073ZM108.796 14.7308C104.75 18.3734 106.779 25.003 111.94 25.003C114.051 25.003 117.644 23.5285 117.21 22.8404C117.057 22.5973 116.521 22.6038 115.842 22.8568C112.968 23.9282 109.929 22.4849 109.929 20.0485C109.929 18.9556 109.956 18.9478 113.68 18.9478C117.888 18.9478 118.091 18.7385 116.807 15.7247C116.029 13.9017 114.966 13.3251 112.379 13.3251C110.713 13.3251 110.083 13.5721 108.796 14.7308ZM113.655 15.1516C114.033 15.6802 114.342 16.556 114.342 17.0979C114.342 17.9945 114.139 18.0828 112.08 18.0828H109.819L110.097 16.7182C110.629 14.114 112.367 13.3485 113.655 15.1516ZM109.145 29.1365C107.425 30.3168 108.105 32.7882 110.15 32.7882C110.659 32.7882 111.315 32.5546 111.606 32.2692C112.445 31.447 112.249 29.418 111.282 28.9107C110.209 28.348 110.309 28.3376 109.145 29.1365ZM26.6168 30.2489C24.4213 30.8696 21.9037 33.5818 21.2841 35.994C20.3556 39.6072 21.77 43.6546 24.5488 45.338C26.397 46.4573 29.6211 46.6558 31.772 45.7826C32.8382 45.3496 33.3179 45.3293 33.6974 45.7013C34.9132 46.8929 35.3496 46.2281 35.3496 43.1836C35.3496 40.563 35.4705 40.108 36.2794 39.6837C37.8699 38.8494 36.5636 38.3624 33.1003 38.4987C30.0227 38.6198 28.6238 39.3239 30.8475 39.6331C31.7875 39.7637 31.8519 39.9523 31.7301 42.2282L31.5986 44.6823L29.9336 44.6321C26.8749 44.54 25.1997 42.111 25.1997 37.7699C25.1997 33.2644 26.5488 31.0581 29.3034 31.0581C30.6383 31.0581 32.5072 32.4625 33.3841 34.1238C34.4291 36.1043 34.9083 35.6164 34.9083 32.5719C34.9083 30.4124 34.7609 29.7606 34.2724 29.7606C33.9225 29.7606 33.5187 29.9479 33.3744 30.1767C33.2062 30.4431 32.7102 30.4431 31.9953 30.1767C30.6379 29.6706 28.5638 29.6983 26.6168 30.2489ZM100.614 32.4586C100.065 33.2345 99.0069 34.3967 98.2633 35.0411C96.9765 36.1562 96.9593 36.2141 97.9037 36.2306C98.856 36.2474 98.897 36.4036 98.9032 40.0328C98.9116 45.0387 99.3842 45.9396 102.092 46.1109C105.449 46.3237 107.591 44.6507 104.303 44.3838L102.648 44.2498L102.521 40.249L102.394 36.2483H104.175C105.663 36.2483 105.957 36.1056 105.957 35.3833C105.957 34.6623 105.663 34.5182 104.192 34.5182C102.475 34.5182 102.427 34.478 102.427 33.03C102.427 30.9833 101.798 30.7852 100.614 32.4586ZM40.1884 36.1614C38.049 38.2582 37.5976 40.2875 38.662 43.0193C39.3023 44.6628 39.7635 45.139 41.4016 45.8492C43.4757 46.7484 44.5379 46.6775 47.1543 45.4647C49.2761 44.4812 48.9019 44.0642 46.1469 44.3432C44.0061 44.5594 43.571 44.4665 42.6165 43.5876C41.9572 42.9808 41.5278 42.1032 41.5278 41.3632V40.1409H45.2788C49.4345 40.1409 49.551 40.038 48.4147 37.3724C47.5806 35.4161 46.1305 34.5182 43.8049 34.5182C42.1474 34.5182 41.6213 34.7574 40.1884 36.1614ZM51.6777 34.8301C50.0802 35.1108 49.5276 35.779 50.4641 36.2967C51.1132 36.6557 51.2364 37.3672 51.2364 40.765C51.2364 43.9578 51.0973 44.8583 50.5744 45.0551C49.0157 45.6412 50.0762 46.1961 52.7549 46.1961C55.5011 46.1961 56.8029 45.6913 55.4097 45.1676C54.8563 44.9595 54.7566 44.1849 54.8603 40.9051L54.9874 36.8971L56.2274 36.7578C58.3258 36.5221 58.7384 37.2565 58.7384 41.2287C58.7384 44.0097 58.591 44.8613 58.0765 45.0551C56.4653 45.6611 57.6034 46.1961 60.5036 46.1961C63.4859 46.1961 64.5344 45.6822 62.7101 45.1148C61.903 44.8635 61.8275 44.4604 61.8275 40.3952C61.8275 36.638 61.7026 35.8391 61.0204 35.234C59.9357 34.2717 57.9494 34.334 56.1904 35.385C54.404 36.4524 54.3254 36.4524 54.3254 35.3833C54.3254 34.5048 53.9601 34.4287 51.6777 34.8301ZM67.3438 34.9309C64.9581 35.898 63.3924 39.2979 64.0389 42.1075C65.0018 46.2925 70.0445 47.7475 73.7426 44.9076L74.8458 44.0603L71.9438 44.3185C69.1588 44.5668 69.0026 44.5287 68.0825 43.3821C67.5547 42.7247 67.1231 41.7265 67.1231 41.1638C67.1231 40.1686 67.2242 40.1409 70.8741 40.1409C74.39 40.1409 74.6252 40.0838 74.6252 39.2331C74.6252 37.7431 73.3353 35.5372 72.1561 35.0109C70.8909 34.4456 68.6328 34.4084 67.3438 34.9309ZM77.3056 34.8976C76.0153 35.2513 75.6088 36.1475 76.5744 36.5104C77.5748 36.8867 77.6079 44.6801 76.611 45.0551C74.9998 45.6611 76.138 46.1961 79.0382 46.1961C82.1414 46.1961 82.885 45.7588 81.2447 44.8985C80.4918 44.5037 80.3621 43.9929 80.3621 41.4233C80.3621 38.9632 80.528 38.2482 81.2667 37.5242L82.1709 36.638L82.949 37.5791C84.4233 39.3641 86.7935 37.4632 85.6665 35.3997C84.9158 34.0243 82.8823 34.244 81.5046 35.8491L80.3621 37.1795V35.8491C80.3621 34.4296 79.7319 34.2332 77.3056 34.8976ZM88.9043 34.9473C88.384 35.1527 87.6488 35.7544 87.2706 36.2842C86.3765 37.535 87.0508 38.9562 88.4458 38.7616C89.211 38.6548 89.4078 38.3386 89.4043 37.2214C89.4007 36.0005 89.5486 35.8158 90.5296 35.8158C92.0419 35.8158 92.7184 36.5662 92.7184 38.243C92.7184 39.5168 92.5776 39.6556 91.0265 39.9125C90.0962 40.0665 88.7061 40.5674 87.9374 41.0254C86.745 41.736 86.5402 42.1106 86.5402 43.5794C86.5402 44.8384 86.7693 45.421 87.3937 45.7484C88.7445 46.4569 90.7352 46.2722 91.9651 45.3241L93.0957 44.4526L93.3857 45.3475C93.6266 46.0918 93.9783 46.2203 95.4796 46.1109C97.1318 45.9911 98.4968 44.8985 96.9946 44.8985C96.0273 44.8985 95.8075 43.9353 95.8075 39.6976C95.8075 36.2271 95.7148 35.8011 94.8265 35.1917C93.7696 34.4659 90.4656 34.3297 88.9043 34.9473ZM108.166 35.0295L106.623 35.4628L107.614 36.2492C108.509 36.9593 108.605 37.4156 108.605 40.938C108.605 44.4699 108.521 44.8665 107.716 45.117C106.004 45.6494 107.361 46.1961 110.396 46.1961C113.357 46.1961 114.396 45.6805 112.577 45.1148C111.759 44.8605 111.694 44.4604 111.694 39.6794C111.694 33.8881 111.788 34.0118 108.166 35.0295ZM117.003 35.0714C114.013 36.5545 112.933 41.1945 114.907 44.0776C116.235 46.017 118.819 46.8777 121.328 46.216C127.822 44.5019 126.819 34.504 120.155 34.5247C119.021 34.5282 117.603 34.7743 117.003 35.0714ZM127.639 35.0156L126.153 35.4347L127.087 36.41C127.89 37.2478 128.022 37.9109 128.022 41.1128C128.022 44.4695 127.934 44.8678 127.133 45.117C125.466 45.6351 126.744 46.1961 129.593 46.1961C132.272 46.1961 133.332 45.6412 131.773 45.0551C131.254 44.8596 131.111 43.9807 131.111 40.9679C131.111 37.2682 131.15 37.1202 132.18 36.8668C134.635 36.263 134.852 36.5753 134.99 40.9099C135.093 44.1853 134.993 44.9595 134.44 45.1676C133.047 45.6913 134.349 46.1961 137.095 46.1961C139.774 46.1961 140.834 45.6412 139.275 45.0551C138.755 44.8592 138.613 43.9764 138.613 40.9311C138.613 37.2487 138.196 35.558 137.113 34.8491C136.2 34.2514 134.084 34.5178 132.598 35.4187L131.111 36.3188V35.4187C131.111 34.4105 130.171 34.3015 127.639 35.0156ZM44.9531 35.9239C45.1976 36.2215 45.5357 37.0973 45.7042 37.8702L46.0109 39.2759H43.7691C41.7308 39.2759 41.5278 39.1868 41.5278 38.291C41.5278 36.1384 43.8247 34.5511 44.9531 35.9239ZM70.849 36.3447C71.2267 36.8733 71.5361 37.7491 71.5361 38.291C71.5361 39.1846 71.3313 39.2759 69.3296 39.2759C66.9479 39.2759 66.628 38.8434 67.6306 36.9766C68.616 35.1411 69.8203 34.9049 70.849 36.3447ZM121.188 36.2548C122.205 37.3555 122.572 41.2239 121.86 43.3363C121.172 45.3812 119.436 45.9314 118.239 44.4833C117.031 43.0206 117.081 37.4563 118.314 36.2483C119.431 35.1536 120.173 35.1553 121.188 36.2548ZM92.6332 42.4116C92.5198 43.9539 92.334 44.2727 91.4806 44.3912C90.3389 44.5499 89.188 43.8008 89.188 42.8995C89.188 42.0029 90.831 40.5734 91.861 40.5734C92.6566 40.5734 92.7524 40.8013 92.6332 42.4116ZM101.544 50.9537C101.059 51.4295 100.662 52.0968 100.662 52.4368C100.662 53.3105 101.897 54.4138 102.875 54.4138C103.637 54.4138 105.075 52.9372 105.075 52.1548C105.075 51.6682 103.388 50.0887 102.868 50.0887C102.626 50.0887 102.03 50.4779 101.544 50.9537ZM37.8747 53.1985C37.5455 53.9856 36.3055 57.1962 35.1188 60.3323C33.4675 64.6955 32.723 66.1405 31.9485 66.4861C30.1701 67.2802 30.8334 67.8217 33.5844 67.8217C36.2181 67.8217 36.9114 67.3723 35.4846 66.5899C34.8143 66.2223 34.7989 65.9965 35.3346 64.4057L35.9321 62.6315H38.6885H41.4448L42.1085 64.5407C42.7665 66.4333 42.763 66.4524 41.7087 66.7114C39.3853 67.2832 40.7966 67.8217 44.6169 67.8217C48.5418 67.8217 49.7086 67.3321 47.5956 66.5713C46.8026 66.2858 46.063 64.7872 43.921 59.1243C41.2811 52.147 41.2167 52.0328 39.8557 51.9009C38.6514 51.7837 38.3955 51.9515 37.8747 53.1985ZM73.3013 52.1691C73.3013 52.4005 73.7977 52.7123 74.4045 52.8615L75.5078 53.1327V59.7986C75.5078 66.3088 75.4853 66.4671 74.5493 66.602C74.0224 66.6781 73.5091 66.9839 73.4094 67.2811C73.2726 67.6885 74.2783 67.8217 77.4936 67.8217C80.6591 67.8217 81.7133 67.6855 81.5796 67.2932C81.4808 67.0021 80.9181 66.6526 80.3294 66.5164C79.3466 66.2893 79.2588 66.0609 79.2588 63.7327V61.196L81.6515 61.0775C85.6078 60.8816 87.9617 58.4946 87.1801 55.4709C86.444 52.6215 85.1201 52.0571 78.7871 51.8914C75.4248 51.8036 73.3013 51.9113 73.3013 52.1691ZM63.3804 54.1262C62.9444 54.9194 62.0204 55.9414 61.3262 56.3969C59.8456 57.3692 59.7155 57.8739 60.9449 57.8739C61.764 57.8739 61.8275 58.1624 61.8275 61.8863C61.8275 66.8044 62.3562 67.8217 64.9131 67.8217C66.8945 67.8217 68.8883 67.1764 68.8883 66.535C68.8883 66.291 68.1884 66.0916 67.3327 66.0916C65.3561 66.0916 64.8279 64.9204 65.0084 60.9339L65.1373 58.0902L67.0128 57.9574C68.5291 57.8497 68.8883 57.6633 68.8883 56.9842C68.8883 56.2766 68.5745 56.1439 66.9025 56.1439H64.9166V54.4138C64.9166 52.3053 64.4307 52.2145 63.3804 54.1262ZM82.764 54.0777C83.8933 55.6577 83.6541 58.0871 82.2636 59.1593C81.6101 59.6628 80.667 60.0174 80.1674 59.9474C79.3528 59.8332 79.2456 59.4738 79.13 56.4682L79.0011 53.1163H80.539C81.6281 53.1163 82.2777 53.397 82.764 54.0777ZM40.117 58.6308L41.0287 61.334H38.8509C37.6532 61.334 36.6735 61.177 36.6735 60.9854C36.6735 59.9828 38.5923 55.2611 38.8747 55.5682C39.0565 55.7658 39.6156 57.1443 40.117 58.6308ZM50.8277 56.5232C49.5374 56.877 49.1309 57.7731 50.0965 58.136C50.6644 58.3501 50.7951 59.152 50.7951 62.4326C50.7951 66.0955 50.7134 66.4913 49.9058 66.7426C48.1936 67.275 49.551 67.8217 52.5863 67.8217C54.509 67.8217 55.6493 67.6457 55.6493 67.3485C55.6493 67.0886 55.2522 66.7737 54.7667 66.6496C53.979 66.4476 53.8841 66.0596 53.8841 63.0381C53.8841 60.0512 53.9971 59.5754 54.8453 58.9933C55.7257 58.389 55.8572 58.405 56.4146 59.1849C57.2318 60.328 58.129 60.2579 58.9803 58.9842C59.5275 58.1659 59.5751 57.7333 59.1956 57.0379C58.5032 55.7697 56.6264 55.893 55.122 57.306L53.8841 58.4682V57.306C53.8841 56.0699 53.16 55.8844 50.8277 56.5232ZM89.6315 56.6551L88.0888 57.0885L89.0799 57.8748C89.9744 58.585 90.0706 59.0413 90.0706 62.5636C90.0706 66.0955 89.9863 66.4922 89.1814 66.7426C87.4692 67.275 88.8266 67.8217 91.8619 67.8217C93.7846 67.8217 94.9249 67.6457 94.9249 67.3485C94.9249 67.0886 94.5277 66.7737 94.0423 66.6496C93.2546 66.4476 93.1597 66.0596 93.1597 63.0381C93.1597 60.0706 93.2762 59.5733 94.1032 59.0054C94.9664 58.4128 95.1142 58.4383 95.8406 59.3051C96.9553 60.6355 98.2346 59.8453 98.2346 57.8268C98.2346 56.4886 98.1093 56.3484 96.8009 56.2247C95.6628 56.117 95.1098 56.3657 94.1169 57.431L92.8663 58.7731L93.0631 57.4587C93.2361 56.3026 93.1337 56.1486 92.2167 56.1828C91.6434 56.2044 90.4797 56.4168 89.6315 56.6551ZM101.36 56.5193C99.8983 56.8298 99.3586 57.7429 100.405 58.136C101.405 58.5123 101.438 66.3057 100.441 66.6807C98.83 67.2867 99.9681 67.8217 102.868 67.8217C105.768 67.8217 106.907 67.2867 105.295 66.6807C104.758 66.4787 104.633 65.461 104.633 61.2877C104.633 55.5608 104.791 55.7914 101.36 56.5193ZM121.928 57.0201C119.2 58.6503 118.34 62.9858 120.206 65.7033C122.053 68.3939 126.219 68.7866 128.973 66.5302L130.008 65.6825L127.36 65.9368C124.246 66.2361 122.908 65.4822 122.452 63.1722L122.175 61.7665H125.981C129.767 61.7665 129.787 61.7605 129.787 60.6636C129.787 59.2238 128.678 57.1516 127.605 56.5893C126.237 55.8714 123.503 56.0786 121.928 57.0201ZM107.723 58.5227C107.723 59.5931 107.898 60.469 108.111 60.469C108.325 60.469 109.031 59.7878 109.678 58.9552C110.624 57.7407 111.158 57.4414 112.379 57.4414C113.216 57.4414 113.899 57.5876 113.896 57.7658C113.894 57.944 112.412 60.0365 110.604 62.4153C108.796 64.7941 107.308 66.99 107.299 67.2949C107.285 67.7218 108.472 67.8213 112.467 67.7274L117.652 67.6054L117.786 65.551C117.86 64.4209 117.737 63.4966 117.512 63.4966C117.287 63.4966 116.631 64.1765 116.054 65.0073C115.132 66.3339 114.775 66.5185 113.128 66.5211C112.097 66.5229 111.253 66.4173 111.253 66.2871C111.253 66.1565 112.706 64.1618 114.481 61.8539C116.256 59.546 117.857 57.4146 118.037 57.117C118.293 56.6966 117.182 56.5764 113.044 56.5764H107.723V58.5227ZM126.242 57.8454C126.493 58.3056 126.698 59.1814 126.698 59.7917C126.698 60.8384 126.57 60.9015 124.444 60.9015C122.206 60.9015 122.192 60.8933 122.493 59.7121C123.122 57.2416 125.315 56.1495 126.242 57.8454Z" fill="white"></path> </svg> 