<?xml version="1.0" encoding="UTF-8"?> <svg xmlns="http://www.w3.org/2000/svg" width="160" height="74" viewBox="0 0 160 74" fill="none"> <path fill-rule="evenodd" clip-rule="evenodd" d="M34 38.8735V65.1289H38H42V38.8735V12.6182H38H34V38.8735ZM49.606 14.3199C48.848 16.7548 45 34.2429 45 35.2493C45 35.7122 46.013 35.9514 47.25 35.7812C48.696 35.5809 49.614 34.6882 49.82 33.2821C50.304 29.9623 55 30.183 55 33.5252C55 35.5012 55.492 35.9563 57.625 35.9563C59.955 35.9563 60.188 35.6558 59.702 33.2821C59.401 31.8108 58.357 26.5607 57.383 21.6131C55.663 12.8768 55.533 12.6182 52.873 12.6182C51.133 12.6182 49.942 13.2386 49.606 14.3199ZM63.073 15.1805C60.041 18.9282 60.503 21.2221 65.123 25.3695C70.03 29.7756 69.828 32.0666 64.531 32.0666C61.734 32.0666 61 32.4487 61 33.9064C61 38.0742 69.499 37.1436 72.531 32.6442C74.695 29.4323 73.733 26.5024 69.269 22.7031C65.146 19.1956 65.237 15.9536 69.436 16.7334C71.157 17.0543 71.981 16.6848 72.315 15.443C72.942 13.1102 72.261 12.6182 68.406 12.6182C66.074 12.6182 64.555 13.3485 63.073 15.1805ZM76 24.2872C76 35.1929 76.127 35.9563 77.943 35.9563C79.507 35.9563 79.945 35.1657 80.193 31.8886C80.46 28.3442 80.867 27.7257 83.345 27.0858C87.022 26.1358 88.928 23.6211 88.968 19.6682C89.014 15.0823 86.055 12.6182 80.5 12.6182H76V24.2872ZM91 24.2872V35.9563H96.5C101.333 35.9563 102 35.7209 102 34.0114C102 32.4983 101.333 32.0666 99 32.0666C96.333 32.0666 96 31.7428 96 29.1493C96 26.6862 96.389 26.2321 98.5 26.2321C100.333 26.2321 101 25.7138 101 24.2872C101 22.8607 100.333 22.3424 98.5 22.3424C96.389 22.3424 96 21.8883 96 19.4251C96 16.8317 96.333 16.5078 99 16.5078C101.333 16.5078 102 16.0761 102 14.563C102 12.8535 101.333 12.6182 96.5 12.6182H91V24.2872ZM105 24.2191C105 35.4681 105.087 35.9563 107.085 35.9563C109.02 35.9563 109.146 35.4983 108.835 29.6336C108.651 26.1562 108.741 23.3119 109.035 23.3129C109.329 23.3138 110.663 26.1591 112 29.6355C114.017 34.8808 114.82 35.9563 116.715 35.9563C118.968 35.9563 119 35.7929 119 24.2872C119 13.3533 118.877 12.6182 117.044 12.6182C115.309 12.6182 115.054 13.4165 114.794 19.6682L114.5 26.7183L111.874 19.9113C109.879 14.739 108.739 13.0295 107.124 12.7932C105.058 12.4917 105 12.8049 105 24.2191ZM83.827 19.2452C84.185 21.6928 82.294 24.5789 80.887 23.7329C80.399 23.4402 80 21.6627 80 19.783C80 17.0524 80.352 16.4301 81.75 16.6897C82.713 16.8676 83.647 18.018 83.827 19.2452ZM53.882 25.5027C53.949 26.4722 53.301 27.2045 52.375 27.2045C51.088 27.2045 50.88 26.5714 51.375 24.1657C51.719 22.4941 52.053 20.416 52.118 19.5467C52.246 17.8391 53.687 22.707 53.882 25.5027ZM48.156 43.2776C44.498 47.7994 44.242 56.7787 47.621 61.9685C48.706 63.6353 49.989 64.1565 53 64.1565C56.005 64.1565 57.301 63.6314 58.399 61.9685C61.951 56.591 61.091 43.9204 57.032 41.8073C53.748 40.0988 50.26 40.6764 48.156 43.2776ZM63 52.4194C63 63.5079 63.11 64.1565 65 64.1565C66.812 64.1565 67.004 63.4952 67.04 57.1064L67.079 50.0564L69.812 56.8633C71.936 62.1533 73.041 63.7393 74.772 63.9814C76.97 64.2878 77 64.1361 77 52.5555C77 41.2637 76.92 40.8184 74.891 40.8184C72.9 40.8184 72.803 41.2268 73.157 48.0464C73.363 52.0216 73.327 55.0741 73.076 54.83C72.825 54.5859 71.458 51.4431 70.037 47.8451C68.036 42.7759 66.954 41.2346 65.228 40.9934C63.03 40.6871 63 40.8388 63 52.4194ZM81 52.4874V64.1565H86.5C91.333 64.1565 92 63.9212 92 62.2116C92 60.6373 91.333 60.2668 88.5 60.2668H85V50.5426C85 41.467 84.867 40.8184 83 40.8184C81.111 40.8184 81 41.467 81 52.4874ZM94 52.4874C94 63.5079 94.111 64.1565 96 64.1565C97.889 64.1565 98 63.5079 98 52.4874C98 41.467 97.889 40.8184 96 40.8184C94.111 40.8184 94 41.467 94 52.4874ZM102 52.4194C102 63.5079 102.11 64.1565 104 64.1565C105.812 64.1565 106.004 63.4952 106.04 57.1064L106.079 50.0564L108.812 56.8633C110.936 62.1533 112.041 63.7393 113.772 63.9814C115.97 64.2878 116 64.1361 116 52.5555C116 41.467 115.89 40.8184 114 40.8184C112.188 40.8184 111.996 41.4796 111.96 47.8684L111.921 54.9185L109.188 48.1115C107.064 42.8216 105.959 41.2355 104.228 40.9934C102.03 40.6871 102 40.8388 102 52.4194ZM119.94 41.0615C119.907 41.1957 119.795 46.4468 119.69 52.7305L119.5 64.1565H125.162C129.982 64.1565 130.786 63.9037 130.572 62.4548C130.405 61.3248 129.259 60.6509 127.161 60.4486C124.42 60.1841 124 59.7728 124 57.3525C124 55.0332 124.463 54.5091 126.741 54.2533C130.592 53.8216 131.036 50.7847 127.309 50.3695C125.086 50.1215 124.434 49.4982 124.184 47.3822C123.899 44.9794 124.178 44.7081 126.934 44.7081C129.333 44.7081 130 44.2851 130 42.7632C130 41.078 129.333 40.8184 125 40.8184C122.25 40.8184 119.973 40.9273 119.94 41.0615ZM55.112 47.3822C56.371 50.5513 55.721 58.0176 54.046 59.6221C51.038 62.5034 48.696 53.031 50.975 47.2023C52.24 43.9671 53.782 44.0342 55.112 47.3822Z" fill="white"></path> </svg> 